<?xml version="1.0" encoding="UTF-8" ?>
<svg version="1.1" width="3840" height="1024" xmlns="http://www.w3.org/2000/svg" shape-rendering="crispEdges">
<rect x="256" y="256" width="32" height="32" fill="#4800A7" />
<rect x="672" y="256" width="32" height="32" fill="#4800A7" />
<rect x="1120" y="256" width="32" height="32" fill="#330076" />
<rect x="1152" y="256" width="32" height="32" fill="#4800A7" />
<rect x="1184" y="256" width="32" height="32" fill="#4800A7" />
<rect x="1216" y="256" width="32" height="32" fill="#4800A7" />
<rect x="1248" y="256" width="32" height="32" fill="#4800A7" />
<rect x="1280" y="256" width="32" height="32" fill="#4800A7" />
<rect x="1312" y="256" width="32" height="32" fill="#4800A7" />
<rect x="1344" y="256" width="32" height="32" fill="#330076" />
<rect x="1376" y="256" width="32" height="32" fill="#330076" />
<rect x="1408" y="256" width="32" height="32" fill="#330076" />
<rect x="2784" y="256" width="32" height="32" fill="#4800A7" />
<rect x="2816" y="256" width="32" height="32" fill="#4800A7" />
<rect x="2848" y="256" width="32" height="32" fill="#4800A7" />
<rect x="2880" y="256" width="32" height="32" fill="#330076" />
<rect x="2912" y="256" width="32" height="32" fill="#330076" />
<rect x="2944" y="256" width="32" height="32" fill="#330076" />
<rect x="3264" y="256" width="32" height="32" fill="#330076" />
<rect x="3456" y="256" width="32" height="32" fill="#4800A7" />
<rect x="3488" y="256" width="32" height="32" fill="#4800A7" />
<rect x="3520" y="256" width="32" height="32" fill="#4800A7" />
<rect x="3552" y="256" width="32" height="32" fill="#4800A7" />
<rect x="3584" y="256" width="32" height="32" fill="#330076" />
<rect x="3648" y="256" width="32" height="32" fill="#330076" />
<rect x="3680" y="256" width="32" height="32" fill="#330076" />
<rect x="3712" y="256" width="32" height="32" fill="#330076" />
<rect x="3744" y="256" width="32" height="32" fill="#4800A7" />
<rect x="3776" y="256" width="32" height="32" fill="#4800A7" />
<rect x="224" y="288" width="32" height="32" fill="#4800A7" />
<rect x="288" y="288" width="32" height="32" fill="#4800A7" />
<rect x="640" y="288" width="32" height="32" fill="#4800A7" />
<rect x="704" y="288" width="32" height="32" fill="#4800A7" />
<rect x="1088" y="288" width="32" height="32" fill="#330076" />
<rect x="1440" y="288" width="32" height="32" fill="#330076" />
<rect x="2752" y="288" width="32" height="32" fill="#330076" />
<rect x="2976" y="288" width="32" height="32" fill="#330076" />
<rect x="3232" y="288" width="32" height="32" fill="#4800A7" />
<rect x="3296" y="288" width="32" height="32" fill="#4800A7" />
<rect x="3424" y="288" width="32" height="32" fill="#4800A7" />
<rect x="3616" y="288" width="32" height="32" fill="#330076" />
<rect x="3808" y="288" width="32" height="32" fill="#330076" />
<rect x="224" y="320" width="32" height="32" fill="#4800A7" />
<rect x="288" y="320" width="32" height="32" fill="#4800A7" />
<rect x="640" y="320" width="32" height="32" fill="#4800A7" />
<rect x="704" y="320" width="32" height="32" fill="#330076" />
<rect x="1056" y="320" width="32" height="32" fill="#4800A7" />
<rect x="1472" y="320" width="32" height="32" fill="#330076" />
<rect x="2720" y="320" width="32" height="32" fill="#4800A7" />
<rect x="3008" y="320" width="32" height="32" fill="#4800A7" />
<rect x="3232" y="320" width="32" height="32" fill="#4800A7" />
<rect x="3296" y="320" width="32" height="32" fill="#330076" />
<rect x="3616" y="320" width="32" height="32" fill="#330076" />
<rect x="192" y="352" width="32" height="32" fill="#4800A7" />
<rect x="320" y="352" width="32" height="32" fill="#4800A7" />
<rect x="608" y="352" width="32" height="32" fill="#4800A7" />
<rect x="736" y="352" width="32" height="32" fill="#4800A7" />
<rect x="1056" y="352" width="32" height="32" fill="#330076" />
<rect x="1472" y="352" width="32" height="32" fill="#330076" />
<rect x="2720" y="352" width="32" height="32" fill="#330076" />
<rect x="3008" y="352" width="32" height="32" fill="#330076" />
<rect x="3232" y="352" width="32" height="32" fill="#4800A7" />
<rect x="3296" y="352" width="32" height="32" fill="#330076" />
<rect x="3616" y="352" width="32" height="32" fill="#330076" />
<rect x="192" y="384" width="32" height="32" fill="#4800A7" />
<rect x="320" y="384" width="32" height="32" fill="#4800A7" />
<rect x="608" y="384" width="32" height="32" fill="#4800A7" />
<rect x="736" y="384" width="32" height="32" fill="#4800A7" />
<rect x="1024" y="384" width="32" height="32" fill="#4800A7" />
<rect x="1440" y="384" width="32" height="32" fill="#330076" />
<rect x="2688" y="384" width="32" height="32" fill="#4800A7" />
<rect x="3008" y="384" width="32" height="32" fill="#330076" />
<rect x="3200" y="384" width="32" height="32" fill="#4800A7" />
<rect x="3328" y="384" width="32" height="32" fill="#4800A7" />
<rect x="3616" y="384" width="32" height="32" fill="#330076" />
<rect x="192" y="416" width="32" height="32" fill="#4800A7" />
<rect x="320" y="416" width="32" height="32" fill="#4800A7" />
<rect x="608" y="416" width="32" height="32" fill="#4800A7" />
<rect x="736" y="416" width="32" height="32" fill="#330076" />
<rect x="1024" y="416" width="32" height="32" fill="#330076" />
<rect x="2688" y="416" width="32" height="32" fill="#4800A7" />
<rect x="3200" y="416" width="32" height="32" fill="#330076" />
<rect x="3328" y="416" width="32" height="32" fill="#330076" />
<rect x="3616" y="416" width="32" height="32" fill="#330076" />
<rect x="192" y="448" width="32" height="32" fill="#4800A7" />
<rect x="352" y="448" width="32" height="32" fill="#4800A7" />
<rect x="384" y="448" width="32" height="32" fill="#4800A7" />
<rect x="544" y="448" width="32" height="32" fill="#330076" />
<rect x="576" y="448" width="32" height="32" fill="#330076" />
<rect x="736" y="448" width="32" height="32" fill="#330076" />
<rect x="992" y="448" width="32" height="32" fill="#4800A7" />
<rect x="2688" y="448" width="32" height="32" fill="#4800A7" />
<rect x="3168" y="448" width="32" height="32" fill="#4800A7" />
<rect x="3360" y="448" width="32" height="32" fill="#4800A7" />
<rect x="3616" y="448" width="32" height="32" fill="#4800A7" />
<rect x="160" y="480" width="32" height="32" fill="#4800A7" />
<rect x="416" y="480" width="32" height="32" fill="#4800A7" />
<rect x="448" y="480" width="32" height="32" fill="#4800A7" />
<rect x="480" y="480" width="32" height="32" fill="#330076" />
<rect x="512" y="480" width="32" height="32" fill="#330076" />
<rect x="768" y="480" width="32" height="32" fill="#4800A7" />
<rect x="992" y="480" width="32" height="32" fill="#4800A7" />
<rect x="2688" y="480" width="32" height="32" fill="#4800A7" />
<rect x="3168" y="480" width="32" height="32" fill="#4800A7" />
<rect x="3360" y="480" width="32" height="32" fill="#330076" />
<rect x="3616" y="480" width="32" height="32" fill="#4800A7" />
<rect x="160" y="512" width="32" height="32" fill="#4800A7" />
<rect x="768" y="512" width="32" height="32" fill="#4800A7" />
<rect x="992" y="512" width="32" height="32" fill="#4800A7" />
<rect x="2688" y="512" width="32" height="32" fill="#4800A7" />
<rect x="3168" y="512" width="32" height="32" fill="#330076" />
<rect x="3360" y="512" width="32" height="32" fill="#330076" />
<rect x="3616" y="512" width="32" height="32" fill="#4800A7" />
<rect x="160" y="544" width="32" height="32" fill="#4800A7" />
<rect x="288" y="544" width="32" height="32" fill="#4800A7" />
<rect x="320" y="544" width="32" height="32" fill="#4800A7" />
<rect x="608" y="544" width="32" height="32" fill="#4800A7" />
<rect x="640" y="544" width="32" height="32" fill="#4800A7" />
<rect x="768" y="544" width="32" height="32" fill="#330076" />
<rect x="992" y="544" width="32" height="32" fill="#4800A7" />
<rect x="1280" y="544" width="32" height="32" fill="#4800A7" />
<rect x="1312" y="544" width="32" height="32" fill="#4800A7" />
<rect x="1344" y="544" width="32" height="32" fill="#4800A7" />
<rect x="1376" y="544" width="32" height="32" fill="#4800A7" />
<rect x="1408" y="544" width="32" height="32" fill="#330076" />
<rect x="1440" y="544" width="32" height="32" fill="#330076" />
<rect x="1600" y="544" width="32" height="32" fill="#4800A7" />
<rect x="1824" y="544" width="32" height="32" fill="#4800A7" />
<rect x="1952" y="544" width="32" height="32" fill="#4800A7" />
<rect x="1984" y="544" width="32" height="32" fill="#4800A7" />
<rect x="2016" y="544" width="32" height="32" fill="#330076" />
<rect x="2048" y="544" width="32" height="32" fill="#330076" />
<rect x="2080" y="544" width="32" height="32" fill="#330076" />
<rect x="2208" y="544" width="32" height="32" fill="#4800A7" />
<rect x="2240" y="544" width="32" height="32" fill="#4800A7" />
<rect x="2272" y="544" width="32" height="32" fill="#330076" />
<rect x="2304" y="544" width="32" height="32" fill="#330076" />
<rect x="2464" y="544" width="32" height="32" fill="#4800A7" />
<rect x="2496" y="544" width="32" height="32" fill="#4800A7" />
<rect x="2528" y="544" width="32" height="32" fill="#330076" />
<rect x="2560" y="544" width="32" height="32" fill="#330076" />
<rect x="2688" y="544" width="32" height="32" fill="#4800A7" />
<rect x="3136" y="544" width="32" height="32" fill="#4800A7" />
<rect x="3392" y="544" width="32" height="32" fill="#4800A7" />
<rect x="3616" y="544" width="32" height="32" fill="#4800A7" />
<rect x="160" y="576" width="32" height="32" fill="#4800A7" />
<rect x="320" y="576" width="32" height="32" fill="#330076" />
<rect x="352" y="576" width="32" height="32" fill="#4800A7" />
<rect x="576" y="576" width="32" height="32" fill="#4800A7" />
<rect x="608" y="576" width="32" height="32" fill="#330076" />
<rect x="768" y="576" width="32" height="32" fill="#330076" />
<rect x="992" y="576" width="32" height="32" fill="#4800A7" />
<rect x="1248" y="576" width="32" height="32" fill="#330076" />
<rect x="1472" y="576" width="32" height="32" fill="#330076" />
<rect x="1600" y="576" width="32" height="32" fill="#4800A7" />
<rect x="1824" y="576" width="32" height="32" fill="#4800A7" />
<rect x="1920" y="576" width="32" height="32" fill="#4800A7" />
<rect x="2176" y="576" width="32" height="32" fill="#4800A7" />
<rect x="2336" y="576" width="32" height="32" fill="#330076" />
<rect x="2432" y="576" width="32" height="32" fill="#4800A7" />
<rect x="2592" y="576" width="32" height="32" fill="#330076" />
<rect x="2688" y="576" width="32" height="32" fill="#4800A7" />
<rect x="3136" y="576" width="32" height="32" fill="#4800A7" />
<rect x="3200" y="576" width="32" height="32" fill="#4800A7" />
<rect x="3232" y="576" width="32" height="32" fill="#330076" />
<rect x="3264" y="576" width="32" height="32" fill="#330076" />
<rect x="3296" y="576" width="32" height="32" fill="#330076" />
<rect x="3328" y="576" width="32" height="32" fill="#330076" />
<rect x="3392" y="576" width="32" height="32" fill="#4800A7" />
<rect x="3616" y="576" width="32" height="32" fill="#4800A7" />
<rect x="128" y="608" width="32" height="32" fill="#4800A7" />
<rect x="320" y="608" width="32" height="32" fill="#000000" />
<rect x="352" y="608" width="32" height="32" fill="#000000" />
<rect x="384" y="608" width="32" height="32" fill="#4800A7" />
<rect x="544" y="608" width="32" height="32" fill="#4800A7" />
<rect x="576" y="608" width="32" height="32" fill="#000000" />
<rect x="608" y="608" width="32" height="32" fill="#000000" />
<rect x="800" y="608" width="32" height="32" fill="#4800A7" />
<rect x="992" y="608" width="32" height="32" fill="#4800A7" />
<rect x="1216" y="608" width="32" height="32" fill="#330076" />
<rect x="1504" y="608" width="32" height="32" fill="#4800A7" />
<rect x="1600" y="608" width="32" height="32" fill="#4800A7" />
<rect x="1824" y="608" width="32" height="32" fill="#4800A7" />
<rect x="1920" y="608" width="32" height="32" fill="#4800A7" />
<rect x="2176" y="608" width="32" height="32" fill="#330076" />
<rect x="2432" y="608" width="32" height="32" fill="#330076" />
<rect x="2688" y="608" width="32" height="32" fill="#330076" />
<rect x="3136" y="608" width="32" height="32" fill="#4800A7" />
<rect x="3168" y="608" width="32" height="32" fill="#4800A7" />
<rect x="3360" y="608" width="32" height="32" fill="#330076" />
<rect x="3392" y="608" width="32" height="32" fill="#4800A7" />
<rect x="3616" y="608" width="32" height="32" fill="#4800A7" />
<rect x="128" y="640" width="32" height="32" fill="#4800A7" />
<rect x="320" y="640" width="32" height="32" fill="#000000" />
<rect x="352" y="640" width="32" height="32" fill="#FFFFFF" />
<rect x="576" y="640" width="32" height="32" fill="#FFFFFF" />
<rect x="608" y="640" width="32" height="32" fill="#000000" />
<rect x="800" y="640" width="32" height="32" fill="#4800A7" />
<rect x="992" y="640" width="32" height="32" fill="#4800A7" />
<rect x="1216" y="640" width="32" height="32" fill="#330076" />
<rect x="1504" y="640" width="32" height="32" fill="#330076" />
<rect x="1600" y="640" width="32" height="32" fill="#4800A7" />
<rect x="1824" y="640" width="32" height="32" fill="#330076" />
<rect x="1920" y="640" width="32" height="32" fill="#330076" />
<rect x="2208" y="640" width="32" height="32" fill="#330076" />
<rect x="2464" y="640" width="32" height="32" fill="#330076" />
<rect x="2688" y="640" width="32" height="32" fill="#330076" />
<rect x="3136" y="640" width="32" height="32" fill="#330076" />
<rect x="3392" y="640" width="32" height="32" fill="#330076" />
<rect x="3616" y="640" width="32" height="32" fill="#4800A7" />
<rect x="128" y="672" width="32" height="32" fill="#4800A7" />
<rect x="800" y="672" width="32" height="32" fill="#330076" />
<rect x="992" y="672" width="32" height="32" fill="#330076" />
<rect x="1504" y="672" width="32" height="32" fill="#330076" />
<rect x="1600" y="672" width="32" height="32" fill="#4800A7" />
<rect x="1824" y="672" width="32" height="32" fill="#330076" />
<rect x="1952" y="672" width="32" height="32" fill="#330076" />
<rect x="1984" y="672" width="32" height="32" fill="#330076" />
<rect x="2016" y="672" width="32" height="32" fill="#330076" />
<rect x="2048" y="672" width="32" height="32" fill="#330076" />
<rect x="2240" y="672" width="32" height="32" fill="#4800A7" />
<rect x="2272" y="672" width="32" height="32" fill="#330076" />
<rect x="2496" y="672" width="32" height="32" fill="#4800A7" />
<rect x="2528" y="672" width="32" height="32" fill="#330076" />
<rect x="2688" y="672" width="32" height="32" fill="#330076" />
<rect x="3008" y="672" width="32" height="32" fill="#330076" />
<rect x="3104" y="672" width="32" height="32" fill="#4800A7" />
<rect x="3424" y="672" width="32" height="32" fill="#4800A7" />
<rect x="3616" y="672" width="32" height="32" fill="#4800A7" />
<rect x="128" y="704" width="32" height="32" fill="#4800A7" />
<rect x="448" y="704" width="32" height="32" fill="#4800A7" />
<rect x="800" y="704" width="32" height="32" fill="#330076" />
<rect x="1024" y="704" width="32" height="32" fill="#4800A7" />
<rect x="1472" y="704" width="32" height="32" fill="#330076" />
<rect x="1600" y="704" width="32" height="32" fill="#330076" />
<rect x="1824" y="704" width="32" height="32" fill="#330076" />
<rect x="1920" y="704" width="32" height="32" fill="#4800A7" />
<rect x="2304" y="704" width="32" height="32" fill="#330076" />
<rect x="2560" y="704" width="32" height="32" fill="#330076" />
<rect x="2720" y="704" width="32" height="32" fill="#4800A7" />
<rect x="3008" y="704" width="32" height="32" fill="#330076" />
<rect x="3104" y="704" width="32" height="32" fill="#4800A7" />
<rect x="3424" y="704" width="32" height="32" fill="#330076" />
<rect x="3616" y="704" width="32" height="32" fill="#4800A7" />
<rect x="96" y="736" width="32" height="32" fill="#4800A7" />
<rect x="416" y="736" width="32" height="32" fill="#4800A7" />
<rect x="480" y="736" width="32" height="32" fill="#330076" />
<rect x="832" y="736" width="32" height="32" fill="#4800A7" />
<rect x="1024" y="736" width="32" height="32" fill="#330076" />
<rect x="1472" y="736" width="32" height="32" fill="#330076" />
<rect x="1600" y="736" width="32" height="32" fill="#330076" />
<rect x="1824" y="736" width="32" height="32" fill="#330076" />
<rect x="1920" y="736" width="32" height="32" fill="#330076" />
<rect x="2336" y="736" width="32" height="32" fill="#330076" />
<rect x="2592" y="736" width="32" height="32" fill="#330076" />
<rect x="2720" y="736" width="32" height="32" fill="#330076" />
<rect x="3008" y="736" width="32" height="32" fill="#330076" />
<rect x="3104" y="736" width="32" height="32" fill="#4800A7" />
<rect x="3424" y="736" width="32" height="32" fill="#330076" />
<rect x="3616" y="736" width="32" height="32" fill="#330076" />
<rect x="96" y="768" width="32" height="32" fill="#330076" />
<rect x="832" y="768" width="32" height="32" fill="#330076" />
<rect x="1056" y="768" width="32" height="32" fill="#330076" />
<rect x="1440" y="768" width="32" height="32" fill="#330076" />
<rect x="1632" y="768" width="32" height="32" fill="#330076" />
<rect x="1792" y="768" width="32" height="32" fill="#330076" />
<rect x="1920" y="768" width="32" height="32" fill="#330076" />
<rect x="2176" y="768" width="32" height="32" fill="#330076" />
<rect x="2336" y="768" width="32" height="32" fill="#330076" />
<rect x="2432" y="768" width="32" height="32" fill="#330076" />
<rect x="2592" y="768" width="32" height="32" fill="#330076" />
<rect x="2752" y="768" width="32" height="32" fill="#330076" />
<rect x="2976" y="768" width="32" height="32" fill="#330076" />
<rect x="3104" y="768" width="32" height="32" fill="#330076" />
<rect x="3424" y="768" width="32" height="32" fill="#330076" />
<rect x="3616" y="768" width="32" height="32" fill="#330076" />
<rect x="96" y="800" width="32" height="32" fill="#330076" />
<rect x="832" y="800" width="32" height="32" fill="#330076" />
<rect x="1088" y="800" width="32" height="32" fill="#330076" />
<rect x="1120" y="800" width="32" height="32" fill="#4800A7" />
<rect x="1152" y="800" width="32" height="32" fill="#4800A7" />
<rect x="1184" y="800" width="32" height="32" fill="#4800A7" />
<rect x="1216" y="800" width="32" height="32" fill="#330076" />
<rect x="1248" y="800" width="32" height="32" fill="#330076" />
<rect x="1280" y="800" width="32" height="32" fill="#330076" />
<rect x="1312" y="800" width="32" height="32" fill="#330076" />
<rect x="1344" y="800" width="32" height="32" fill="#330076" />
<rect x="1376" y="800" width="32" height="32" fill="#330076" />
<rect x="1408" y="800" width="32" height="32" fill="#330076" />
<rect x="1664" y="800" width="32" height="32" fill="#4800A7" />
<rect x="1696" y="800" width="32" height="32" fill="#330076" />
<rect x="1728" y="800" width="32" height="32" fill="#330076" />
<rect x="1760" y="800" width="32" height="32" fill="#330076" />
<rect x="1952" y="800" width="32" height="32" fill="#330076" />
<rect x="1984" y="800" width="32" height="32" fill="#330076" />
<rect x="2016" y="800" width="32" height="32" fill="#330076" />
<rect x="2048" y="800" width="32" height="32" fill="#330076" />
<rect x="2080" y="800" width="32" height="32" fill="#330076" />
<rect x="2208" y="800" width="32" height="32" fill="#4800A7" />
<rect x="2240" y="800" width="32" height="32" fill="#330076" />
<rect x="2272" y="800" width="32" height="32" fill="#330076" />
<rect x="2304" y="800" width="32" height="32" fill="#330076" />
<rect x="2464" y="800" width="32" height="32" fill="#4800A7" />
<rect x="2496" y="800" width="32" height="32" fill="#330076" />
<rect x="2528" y="800" width="32" height="32" fill="#330076" />
<rect x="2560" y="800" width="32" height="32" fill="#330076" />
<rect x="2784" y="800" width="32" height="32" fill="#4800A7" />
<rect x="2816" y="800" width="32" height="32" fill="#4800A7" />
<rect x="2848" y="800" width="32" height="32" fill="#330076" />
<rect x="2880" y="800" width="32" height="32" fill="#330076" />
<rect x="2912" y="800" width="32" height="32" fill="#330076" />
<rect x="2944" y="800" width="32" height="32" fill="#330076" />
<rect x="3104" y="800" width="32" height="32" fill="#330076" />
<rect x="3424" y="800" width="32" height="32" fill="#330076" />
<rect x="3616" y="800" width="32" height="32" fill="#330076" />
</svg>